<svg width="900" height="260" viewBox="0 0 900 260" xmlns="http://www.w3.org/2000/svg">
  <defs>
    <linearGradient id="bg" x1="0" y1="0" x2="1" y2="1">
      <stop offset="0%" stop-color="#0d1117"/>
      <stop offset="55%" stop-color="#161b22"/>
      <stop offset="100%" stop-color="#1f2937"/>
    </linearGradient>
  </defs>

  <rect width="900" height="260" fill="url(#bg)" rx="0"/>

  <!-- decorative wave layers -->
  <path d="M0,180 Q225,140 450,175 Q675,210 900,170 L900,260 L0,260 Z"
        fill="#21262d" opacity="0.6"/>
  <path d="M0,200 Q200,170 420,198 Q640,226 900,195 L900,260 L0,260 Z"
        fill="#161b22" opacity="0.7"/>
  <path d="M0,220 Q250,195 500,218 Q750,241 900,215 L900,260 L0,260 Z"
        fill="#0d1117" opacity="0.9"/>

  <!-- accent line under name -->
  <rect x="320" y="118" width="260" height="3" rx="2" fill="#79c0ff" opacity="0.7"/>

  <!-- Name -->
  <text x="450" y="108"
        font-family="Segoe UI, Arial, Helvetica, sans-serif"
        font-size="54" font-weight="700" letter-spacing="1"
        fill="#ffffff" text-anchor="middle"
        dominant-baseline="auto">Yukta Patel</text>

  <!-- Subtitle -->
  <text x="450" y="152"
        font-family="Segoe UI, Arial, Helvetica, sans-serif"
        font-size="19" font-weight="400" letter-spacing="0.5"
        fill="#79c0ff" text-anchor="middle">IT Support &amp; Security Compliance  |  Aspiring DevOps &amp; Cloud Engineer</text>

  <!-- Tagline -->
  <text x="450" y="182"
        font-family="Segoe UI, Arial, Helvetica, sans-serif"
        font-size="14" font-weight="300" letter-spacing="0.3"
        fill="#8b949e" text-anchor="middle">India  ·  2+ Years Experience  ·  Learning Cloud &amp; DevOps</text>
</svg>